<svg xmlns="http://www.w3.org/2000/svg" viewBox="0 0 1600 700" preserveAspectRatio="xMidYMid slice" xmlns:c2pa="http://c2pa.org/manifest"><metadata><c2pa:manifest>AAAWgmp1bWIAAAAeanVtZGMycGEAEQAQgAAAqgA4m3EDYzJwYQAAABZcanVtYgAAAEdqdW1kYzJtYQARABCAAACqADibcQN1cm46YzJwYTozZTFlMTFhZi01ZWM0LTRkMWUtYTM0Yy0xMzgyN2I5ZThlNjkAAAADl2p1bWIAAAApanVtZGMyYXMAEQAQgAAAqgA4m3EDYzJwYS5hc3NlcnRpb25zAAAAALxqdW1iAAAARGp1bWRjYm9yABEAEIAAAKoAOJtxE2MycGEuaW5ncmVkaWVudC52MwAAAAAYYzJzaCvb7lS9BnRgThALqPt7Yv4AAABwY2JvcqNpZGM6Zm9ybWF0bWltYWdlL3N2Zyt4bWxqaW5zdGFuY2VJRHgseG1wOmlpZDpiOGVlNmQzMC00MTI0LTQ1M2ItYmZkYS05NTlhMjY2YzBmZTlscmVsYXRpb25zaGlwaHBhcmVudE9mAAAB4mp1bWIAAABBanVtZGNib3IAEQAQgAAAqgA4m3ETYzJwYS5hY3Rpb25zLnYyAAAAABhjMnNo79Zezl4EvYv23pHqQUiyKQAAAZljYm9yomdhY3Rpb25zgqJmYWN0aW9ua2MycGEub3BlbmVkanBhcmFtZXRlcnOha2luZ3JlZGllbnRzgaJjdXJseC1zZWxmI2p1bWJmPWMycGEuYXNzZXJ0aW9ucy9jMnBhLmluZ3JlZGllbnQudjNkaGFzaFggQh3LVWgkjRC0BxwEhyE1lY1gpYMTbCASCYriEwX4a76kZmFjdGlvbngdY29tLmFudGhyb3BpYy5jbGF1ZGUucHJvdmlkZWRqcGFyYW1ldGVyc6F4H2NvbS5hbnRocm9waWMub3JpZ2luLWNvbmZpZGVuY2VndW5rbm93bmtkZXNjcmlwdGlvbnhmQ2xhdWRlIHByb3ZpZGVkIHRoaXMgZmlsZSBhdCB0aGUgcmVxdWVzdCBvZiBhIHVzZXIgYW5kIG1heSBoYXZlIGNyZWF0ZWQgb3IgbW9kaWZpZWQgdGhlIGZpbGUgY29udGVudHMubXNvZnR3YXJlQWdlbnShZG5hbWVmQ2xhdWRlcmFsbEFjdGlvbnNJbmNsdWRlZPUAAADIanVtYgAAAEBqdW1kY2JvcgARABCAAACqADibcRNjMnBhLmhhc2guZGF0YQAAAAAYYzJzaKTBfBYlxv3v/Z5aePam1zsAAACAY2JvcqVjYWxnZnNoYTI1NmNwYWRNAAAAAAAAAAAAAAAAAGRoYXNoWCBJ/2XhIHDIfMzORgjv2rqz6fXz2MpKliwJu+QGnvMUQWRuYW1lbmp1bWJmIG1hbmlmZXN0amV4Y2x1c2lvbnOBomVzdGFydBijZmxlbmd0aBkeBAAAAj5qdW1iAAAAJ2p1bWRjMmNsABEAEIAAAKoAOJtxA2MycGEuY2xhaW0udjIAAAACD2Nib3KlY2FsZ2ZzaGEyNTZpc2lnbmF0dXJleE1zZWxmI2p1bWJmPS9jMnBhL3VybjpjMnBhOjNlMWUxMWFmLTVlYzQtNGQxZS1hMzRjLTEzODI3YjllOGU2OS9jMnBhLnNpZ25hdHVyZWppbnN0YW5jZUlEeCx4bXA6aWlkOjcwMTU2YzAyLWY1NTAtNDUwMi1hNmRlLTNlZmE4MDRlMGE5NnJjcmVhdGVkX2Fzc2VydGlvbnODomN1cmx4LXNlbGYjanVtYmY9YzJwYS5hc3NlcnRpb25zL2MycGEuaW5ncmVkaWVudC52M2RoYXNoWCBCHctVaCSNELQHHASHITWVjWClgxNsIBIJiuITBfhrvqJjdXJseCpzZWxmI2p1bWJmPWMycGEuYXNzZXJ0aW9ucy9jMnBhLmFjdGlvbnMudjJkaGFzaFgg/uGu/4XfdWLHZSmqTZ/ija2iPTuRGBDi8ee8LgwVH3WiY3VybHgpc2VsZiNqdW1iZj1jMnBhLmFzc2VydGlvbnMvYzJwYS5oYXNoLmRhdGFkaGFzaFggWPLT3zuyDy/HgcpTSIDAirhUx1QmYMboyKAfqETwUmd0Y2xhaW1fZ2VuZXJhdG9yX2luZm+jZG5hbWVvQW50aHJvcGljIEZpbGVzZ3ZlcnNpb25lMS4wLjBrc3BlY1ZlcnNpb25lMi40LjAAABA4anVtYgAAAChqdW1kYzJjcwARABCAAACqADibcQNjMnBhLnNpZ25hdHVyZQAAABAIY2JvctKEWQISogEmGCFZAgowggIGMIIBjaADAgECAhRA5aAK7sI50L64g/oGQgU9Z1UTADAKBggqhkjOPQQDAzBJMRcwFQYDVQQKEw5BbnRocm9waWMsIFBCQzEuMCwGA1UEAxMlQW50aHJvcGljIENvbnRlbnQgQ3JlZGVudGlhbHMgUm9vdCBDQTAeFw0yNjA4MDcxODQzNTZaFw0yODA4MDYxOTQzNTZaMEQxFzAVBgNVBAoTDkFudGhyb3BpYywgUEJDMSkwJwYDVQQDEyBBbnRocm9waWMgQ2xhdWRlIENvbnRlbnQgU2lnbmluZzBZMBMGByqGSM49AgEGCCqGSM49AwEHA0IABJh6CmvLUBgFFNU0vUKlOVtE6djd17L5SuwX0LemFisBM3dkd/3cyjxFA3Qo5S46fX0/ihY0VZ7mfb9KF703t5OjWDBWMA4GA1UdDwEB/wQEAwIHgDAVBgNVHSUEDjAMBgorBgEEAYPoXgIBMAwGA1UdEwEB/wQCMAAwHwYDVR0jBBgwFoAUzlHiBIFOZFsj+OPEz5o+nMHXXMIwCgYIKoZIzj0EAwMDZwAwZAIwMXMdFJ4BetLLVY7ORuE9noqbbAZOZn/aArXyTwFAZfKrPzxF2vPoJNf1+UCdg1XGAjBwX1zd9WGqYkqmL5SFqw1QySjr1zJfpJM9+1rdDwSPLMOPOjKuiXjoU/pUUeG9RwmhY3BhZFkNngAAAAAAAAAAAAAAAAAAAAAAAAAAAAAAAAAAAAAAAAAAAAAAAAAAAAAAAAAAAAAAAAAAAAAAAAAAAAAAAAAAAAAAAAAAAAAAAAAAAAAAAAAAAAAAAAAAAAAAAAAAAAAAAAAAAAAAAAAAAAAAAAAAAAAAAAAAAAAAAAAAAAAAAAAAAAAAAAAAAAAAAAAAAAAAAAAAAAAAAAAAAAAAAAAAAAAAAAAAAAAAAAAAAAAAAAAAAAAAAAAAAAAAAAAAAAAAAAAAAAAAAAAAAAAAAAAAAAAAAAAAAAAAAAAAAAAAAAAAAAAAAAAAAAAAAAAAAAAAAAAAAAAAAAAAAAAAAAAAAAAAAAAAAAAAAAAAAAAAAAAAAAAAAAAAAAAAAAAAAAAAAAAAAAAAAAAAAAAAAAAAAAAAAAAAAAAAAAAAAAAAAAAAAAAAAAAAAAAAAAAAAAAAAAAAAAAAAAAAAAAAAAAAAAAAAAAAAAAAAAAAAAAAAAAAAAAAAAAAAAAAAAAAAAAAAAAAAAAAAAAAAAAAAAAAAAAAAAAAAAAAAAAAAAAAAAAAAAAAAAAAAAAAAAAAAAAAAAAAAAAAAAAAAAAAAAAAAAAAAAAAAAAAAAAAAAAAAAAAAAAAAAAAAAAAAAAAAAAAAAAAAAAAAAAAAAAAAAAAAAAAAAAAAAAAAAAAAAAAAAAAAAAAAAAAAAAAAAAAAAAAAAAAAAAAAAAAAAAAAAAAAAAAAAAAAAAAAAAAAAAAAAAAAAAAAAAAAAAAAAAAAAAAAAAAAAAAAAAAAAAAAAAAAAAAAAAAAAAAAAAAAAAAAAAAAAAAAAAAAAAAAAAAAAAAAAAAAAAAAAAAAAAAAAAAAAAAAAAAAAAAAAAAAAAAAAAAAAAAAAAAAAAAAAAAAAAAAAAAAAAAAAAAAAAAAAAAAAAAAAAAAAAAAAAAAAAAAAAAAAAAAAAAAAAAAAAAAAAAAAAAAAAAAAAAAAAAAAAAAAAAAAAAAAAAAAAAAAAAAAAAAAAAAAAAAAAAAAAAAAAAAAAAAAAAAAAAAAAAAAAAAAAAAAAAAAAAAAAAAAAAAAAAAAAAAAAAAAAAAAAAAAAAAAAAAAAAAAAAAAAAAAAAAAAAAAAAAAAAAAAAAAAAAAAAAAAAAAAAAAAAAAAAAAAAAAAAAAAAAAAAAAAAAAAAAAAAAAAAAAAAAAAAAAAAAAAAAAAAAAAAAAAAAAAAAAAAAAAAAAAAAAAAAAAAAAAAAAAAAAAAAAAAAAAAAAAAAAAAAAAAAAAAAAAAAAAAAAAAAAAAAAAAAAAAAAAAAAAAAAAAAAAAAAAAAAAAAAAAAAAAAAAAAAAAAAAAAAAAAAAAAAAAAAAAAAAAAAAAAAAAAAAAAAAAAAAAAAAAAAAAAAAAAAAAAAAAAAAAAAAAAAAAAAAAAAAAAAAAAAAAAAAAAAAAAAAAAAAAAAAAAAAAAAAAAAAAAAAAAAAAAAAAAAAAAAAAAAAAAAAAAAAAAAAAAAAAAAAAAAAAAAAAAAAAAAAAAAAAAAAAAAAAAAAAAAAAAAAAAAAAAAAAAAAAAAAAAAAAAAAAAAAAAAAAAAAAAAAAAAAAAAAAAAAAAAAAAAAAAAAAAAAAAAAAAAAAAAAAAAAAAAAAAAAAAAAAAAAAAAAAAAAAAAAAAAAAAAAAAAAAAAAAAAAAAAAAAAAAAAAAAAAAAAAAAAAAAAAAAAAAAAAAAAAAAAAAAAAAAAAAAAAAAAAAAAAAAAAAAAAAAAAAAAAAAAAAAAAAAAAAAAAAAAAAAAAAAAAAAAAAAAAAAAAAAAAAAAAAAAAAAAAAAAAAAAAAAAAAAAAAAAAAAAAAAAAAAAAAAAAAAAAAAAAAAAAAAAAAAAAAAAAAAAAAAAAAAAAAAAAAAAAAAAAAAAAAAAAAAAAAAAAAAAAAAAAAAAAAAAAAAAAAAAAAAAAAAAAAAAAAAAAAAAAAAAAAAAAAAAAAAAAAAAAAAAAAAAAAAAAAAAAAAAAAAAAAAAAAAAAAAAAAAAAAAAAAAAAAAAAAAAAAAAAAAAAAAAAAAAAAAAAAAAAAAAAAAAAAAAAAAAAAAAAAAAAAAAAAAAAAAAAAAAAAAAAAAAAAAAAAAAAAAAAAAAAAAAAAAAAAAAAAAAAAAAAAAAAAAAAAAAAAAAAAAAAAAAAAAAAAAAAAAAAAAAAAAAAAAAAAAAAAAAAAAAAAAAAAAAAAAAAAAAAAAAAAAAAAAAAAAAAAAAAAAAAAAAAAAAAAAAAAAAAAAAAAAAAAAAAAAAAAAAAAAAAAAAAAAAAAAAAAAAAAAAAAAAAAAAAAAAAAAAAAAAAAAAAAAAAAAAAAAAAAAAAAAAAAAAAAAAAAAAAAAAAAAAAAAAAAAAAAAAAAAAAAAAAAAAAAAAAAAAAAAAAAAAAAAAAAAAAAAAAAAAAAAAAAAAAAAAAAAAAAAAAAAAAAAAAAAAAAAAAAAAAAAAAAAAAAAAAAAAAAAAAAAAAAAAAAAAAAAAAAAAAAAAAAAAAAAAAAAAAAAAAAAAAAAAAAAAAAAAAAAAAAAAAAAAAAAAAAAAAAAAAAAAAAAAAAAAAAAAAAAAAAAAAAAAAAAAAAAAAAAAAAAAAAAAAAAAAAAAAAAAAAAAAAAAAAAAAAAAAAAAAAAAAAAAAAAAAAAAAAAAAAAAAAAAAAAAAAAAAAAAAAAAAAAAAAAAAAAAAAAAAAAAAAAAAAAAAAAAAAAAAAAAAAAAAAAAAAAAAAAAAAAAAAAAAAAAAAAAAAAAAAAAAAAAAAAAAAAAAAAAAAAAAAAAAAAAAAAAAAAAAAAAAAAAAAAAAAAAAAAAAAAAAAAAAAAAAAAAAAAAAAAAAAAAAAAAAAAAAAAAAAAAAAAAAAAAAAAAAAAAAAAAAAAAAAAAAAAAAAAAAAAAAAAAAAAAAAAAAAAAAAAAAAAAAAAAAAAAAAAAAAAAAAAAAAAAAAAAAAAAAAAAAAAAAAAAAAAAAAAAAAAAAAAAAAAAAAAAAAAAAAAAAAAAAAAAAAAAAAAAAAAAAAAAAAAAAAAAAAAAAAAAAAAAAAAAAAAAAAAAAAAAAAAAAAAAAAAAAAAAAAAAAAAAAAAAAAAAAAAAAAAAAAAAAAAAAAAAAAAAAAAAAAAAAAAAAAAAAAAAAAAAAAAAAAAAAAAAAAAAAAAAAAAAAAAAAAAAAAAAAAAAAAAAAAAAAAAAAAAAAAAAAAAAAAAAAAAAAAAAAAAAAAAAAAAAAAAAAAAAAAAAAAAAAAAAAAAAAAAAAAAAAAAAAAAAAAAAAAAAAAAAAAAAAAAAAAAAAAAAAAAAAAAAAAAAAAAAAAAAAAAAAAAAAAAAAAAAAAAAAAAAAAAAAAAAAAAAAAAAAAAAAAAAAAAAAAAAAAAAAAAAAAAAAAAAAAAAAAAAAAAAAAAAAAAAAAAAAAAAAAAAAAAAAAAAAAAAAAAAAAAAAAAAAAAAAAAAAAAAAAAAAAAAAAAAAAAAAAAAAAAAAAAAAAAAAAAAAAAAAAAAAAAAAAAAAAAAAAAAAAAAAAAAAAAAAAAAAAAAAAAAAAAAAAAAAAAAAAAAAAAAAAAAAAAAAAAAAAAAAAAAAAAAAAAAAAAAAAAAAAAAAAAAAAAAAAAAAAAAAAAAAAAAAAAAAAAAAAAAAAAAAAAAAAAAAAAAAAAAAAAAAAAAAAAAAAAAAAAAAAAAAAAAAAAAAAAAAAAAAAAAAAAAAAAAAAAAAAAAAAAAAAAAAAAAAAAAAAAAAAAAAAAAAAAAAAAAAAAAAAAAAAAAAAAAAAAAAAAAAAAAAAAAAAAAAAAAAAAAAAAAAAAAAAAAAAAAAAAAAAAAAAAAAAAAAAAAAAAAAAAAAAAAAAAAAAAAAAAAAAAAAAAAAAAAAAAAAAAAAAAAAAAAAAAAAAAAAAAAAAAAAAAAAAAAAAAAAAAAAAAAAAAAAAAAAAAAAAAAAAAAAAAAAAAAAAAAAAAAAAAAAAAAAAAAAAAAAAAAAAAAAAAAAAAAAAAAAAAAAAAAAAAAAAAAAAAAAAAAAAAAAAAAAAAAAAAAAAAAAAAAAAAAAAAAAAAAAAAAAAAAAAAAAAAAAAAAAAAAAAAAAAAAAAAAAAAAAAAAAAAAAAAAAAAAAAAAAAAAAAAAAAAAAAAAAAAAAAAAAAAAAAAAAAAAAAAAAAAAAAAAAAAAAAAAAAAAAAAAAAAAAAAAAAAAAAAAAAAAAAAAAAAAAAAAAAAAAAAAAAAAAAAAAAAAAAAAAAAAAAAAAAAAAAAAAAAAAAAAAAAAAAAAAAAAAAAAAAAAAAAAAAAAAAAAAAAAAAAAAAAAAAAAAAAAAAAAAAAAAAAAAAAAAAAAAAAAAAAAAAAAAAAAAAAAAAAAAAAAAAAAAAAAAAAAAAAAAAAAAAAAAAAAAAAAAAAAAAAAAAAAAAAAAAAAAAAAAAAAAAAAAAAAAAAAAAAAAAAAAAAAAAAAAAAAAAAAAAAAAAAAAAAAAAAAAAAAAAAAAAAAAAAAAAAAAAAAAAAAAAAAAAAAAAAAAAAAAAAAAAAAAAAAAAAAAAAAAAAAAAAAAAAAAAAAAAAAAAAAAAAAAAAAAAAAAAAAAAAAAAAAAAAAAAAAAAAAAAAAAAAAAAAAAAAAAAAAAAAAAAAAAAAAAAAAAAAAAAAAAAAAAAAAAAAAAAAPZYQLIWJ6NeQefa1eOldccBNO4gWCD8aDakVKjmBzCYD1ksD4Kr8OzLiDxVSV8KWWXTW6Lu2IFwiqe7I1ZX5S+ppC4=</c2pa:manifest></metadata><defs><linearGradient id="sk" x1="0" y1="0" x2="0" y2="1"><stop offset="0" stop-color="#050f0a"/><stop offset="1" stop-color="#0e2a1c"/></linearGradient><radialGradient id="gl"><stop offset="0" stop-color="#dff5e6" stop-opacity=".9"/><stop offset="1" stop-color="#dff5e6" stop-opacity="0"/></radialGradient><linearGradient id="bm" gradientUnits="userSpaceOnUse" x1="0" y1="60" x2="0" y2="700"><stop offset="0" stop-color="#dff5e6" stop-opacity=".3"/><stop offset="1" stop-color="#dff5e6" stop-opacity="0"/></linearGradient><radialGradient id="vg" cx="50%" cy="55%" r="75%"><stop offset=".45" stop-color="#050f0a" stop-opacity="0"/><stop offset="1" stop-color="#050f0a" stop-opacity=".85"/></radialGradient><pattern id="nt" width="22" height="22" patternUnits="userSpaceOnUse"><path d="M0 0L22 22M22 0L0 22" stroke="#fff" stroke-opacity=".35" stroke-width="1"/></pattern></defs><rect width="1600" height="700" fill="url(#sk)"/><circle cx="140" cy="60" r="190" fill="url(#gl)"/><circle cx="1460" cy="60" r="190" fill="url(#gl)"/><rect y="160" width="1600" height="90" fill="#040c08" opacity=".9"/><circle cx="1314" cy="213" r="2.2" fill="#dff5e6" opacity="0.15"/><circle cx="1034" cy="224" r="1.8" fill="#dff5e6" opacity="0.42"/><circle cx="394" cy="198" r="2.0" fill="#dff5e6" opacity="0.63"/><circle cx="917" cy="201" r="1.5" fill="#dff5e6" opacity="0.57"/><circle cx="515" cy="170" r="1.9" fill="#dff5e6" opacity="0.43"/><circle cx="1326" cy="200" r="2.2" fill="#dff5e6" opacity="0.35"/><circle cx="786" cy="172" r="1.8" fill="#dff5e6" opacity="0.26"/><circle cx="648" cy="187" r="2.2" fill="#dff5e6" opacity="0.36"/><circle cx="647" cy="199" r="2.1" fill="#dff5e6" opacity="0.37"/><circle cx="1216" cy="221" r="1.6" fill="#dff5e6" opacity="0.46"/><circle cx="1014" cy="168" r="1.7" fill="#dff5e6" opacity="0.31"/><circle cx="574" cy="198" r="2.6" fill="#dff5e6" opacity="0.56"/><circle cx="482" cy="169" r="2.3" fill="#dff5e6" opacity="0.36"/><circle cx="61" cy="189" r="1.3" fill="#dff5e6" opacity="0.70"/><circle cx="400" cy="204" r="1.1" fill="#dff5e6" opacity="0.63"/><circle cx="808" cy="167" r="2.0" fill="#dff5e6" opacity="0.62"/><circle cx="759" cy="209" r="2.6" fill="#dff5e6" opacity="0.38"/><circle cx="897" cy="235" r="2.1" fill="#dff5e6" opacity="0.43"/><circle cx="539" cy="214" r="2.3" fill="#dff5e6" opacity="0.55"/><circle cx="335" cy="190" r="1.9" fill="#dff5e6" opacity="0.21"/><circle cx="1235" cy="187" r="1.5" fill="#dff5e6" opacity="0.30"/><circle cx="348" cy="231" r="1.6" fill="#dff5e6" opacity="0.20"/><circle cx="1278" cy="227" r="1.1" fill="#dff5e6" opacity="0.23"/><circle cx="70" cy="206" r="2.1" fill="#dff5e6" opacity="0.29"/><circle cx="1282" cy="179" r="1.6" fill="#dff5e6" opacity="0.38"/><circle cx="682" cy="209" r="1.9" fill="#dff5e6" opacity="0.25"/><circle cx="64" cy="195" r="1.6" fill="#dff5e6" opacity="0.39"/><circle cx="81" cy="234" r="1.2" fill="#dff5e6" opacity="0.22"/><circle cx="714" cy="211" r="1.2" fill="#dff5e6" opacity="0.61"/><circle cx="773" cy="221" r="1.7" fill="#dff5e6" opacity="0.40"/><circle cx="640" cy="196" r="1.7" fill="#dff5e6" opacity="0.51"/><circle cx="1133" cy="210" r="1.2" fill="#dff5e6" opacity="0.25"/><circle cx="814" cy="184" r="1.6" fill="#dff5e6" opacity="0.56"/><circle cx="1476" cy="174" r="1.5" fill="#dff5e6" opacity="0.40"/><circle cx="210" cy="229" r="2.7" fill="#dff5e6" opacity="0.57"/><circle cx="1296" cy="188" r="1.4" fill="#dff5e6" opacity="0.19"/><circle cx="730" cy="197" r="1.2" fill="#dff5e6" opacity="0.53"/><circle cx="589" cy="218" r="2.5" fill="#dff5e6" opacity="0.21"/><circle cx="804" cy="227" r="2.2" fill="#dff5e6" opacity="0.34"/><circle cx="741" cy="180" r="1.4" fill="#dff5e6" opacity="0.29"/><circle cx="77" cy="214" r="1.0" fill="#dff5e6" opacity="0.46"/><circle cx="1115" cy="232" r="2.3" fill="#dff5e6" opacity="0.41"/><circle cx="751" cy="222" r="1.8" fill="#dff5e6" opacity="0.30"/><circle cx="126" cy="178" r="1.5" fill="#dff5e6" opacity="0.48"/><circle cx="430" cy="183" r="1.9" fill="#dff5e6" opacity="0.18"/><circle cx="509" cy="240" r="1.3" fill="#dff5e6" opacity="0.42"/><circle cx="485" cy="187" r="1.1" fill="#dff5e6" opacity="0.15"/><circle cx="37" cy="198" r="1.8" fill="#dff5e6" opacity="0.46"/><circle cx="645" cy="206" r="2.1" fill="#dff5e6" opacity="0.48"/><circle cx="1025" cy="173" r="2.4" fill="#dff5e6" opacity="0.44"/><circle cx="1377" cy="225" r="1.2" fill="#dff5e6" opacity="0.58"/><circle cx="49" cy="227" r="2.4" fill="#dff5e6" opacity="0.18"/><circle cx="1031" cy="180" r="2.3" fill="#dff5e6" opacity="0.52"/><circle cx="1465" cy="185" r="1.6" fill="#dff5e6" opacity="0.40"/><circle cx="21" cy="202" r="1.6" fill="#dff5e6" opacity="0.34"/><circle cx="265" cy="189" r="2.4" fill="#dff5e6" opacity="0.36"/><circle cx="569" cy="187" r="2.4" fill="#dff5e6" opacity="0.50"/><circle cx="151" cy="177" r="1.1" fill="#dff5e6" opacity="0.19"/><circle cx="1511" cy="174" r="1.8" fill="#dff5e6" opacity="0.44"/><circle cx="510" cy="187" r="1.3" fill="#dff5e6" opacity="0.25"/><circle cx="462" cy="217" r="2.2" fill="#dff5e6" opacity="0.29"/><circle cx="501" cy="179" r="1.3" fill="#dff5e6" opacity="0.36"/><circle cx="991" cy="167" r="1.1" fill="#dff5e6" opacity="0.23"/><circle cx="1205" cy="230" r="1.6" fill="#dff5e6" opacity="0.56"/><circle cx="61" cy="220" r="1.2" fill="#dff5e6" opacity="0.16"/><circle cx="248" cy="222" r="2.6" fill="#dff5e6" opacity="0.20"/><circle cx="1162" cy="171" r="1.2" fill="#dff5e6" opacity="0.30"/><circle cx="1419" cy="216" r="2.3" fill="#dff5e6" opacity="0.35"/><circle cx="1019" cy="174" r="2.3" fill="#dff5e6" opacity="0.16"/><circle cx="279" cy="186" r="1.0" fill="#dff5e6" opacity="0.25"/><circle cx="660" cy="206" r="2.5" fill="#dff5e6" opacity="0.59"/><circle cx="469" cy="170" r="2.5" fill="#dff5e6" opacity="0.59"/><circle cx="739" cy="203" r="1.8" fill="#dff5e6" opacity="0.38"/><circle cx="157" cy="177" r="1.4" fill="#dff5e6" opacity="0.58"/><circle cx="349" cy="239" r="1.6" fill="#dff5e6" opacity="0.30"/><circle cx="1077" cy="187" r="1.8" fill="#dff5e6" opacity="0.50"/><circle cx="1349" cy="186" r="2.3" fill="#dff5e6" opacity="0.69"/><circle cx="930" cy="243" r="2.7" fill="#dff5e6" opacity="0.38"/><circle cx="1509" cy="207" r="1.1" fill="#dff5e6" opacity="0.46"/><circle cx="565" cy="235" r="1.4" fill="#dff5e6" opacity="0.41"/><circle cx="161" cy="195" r="1.9" fill="#dff5e6" opacity="0.25"/><circle cx="37" cy="199" r="2.5" fill="#dff5e6" opacity="0.18"/><circle cx="475" cy="200" r="2.3" fill="#dff5e6" opacity="0.57"/><circle cx="1361" cy="198" r="1.8" fill="#dff5e6" opacity="0.63"/><circle cx="1343" cy="211" r="1.9" fill="#dff5e6" opacity="0.40"/><circle cx="1532" cy="238" r="2.7" fill="#dff5e6" opacity="0.41"/><circle cx="290" cy="237" r="1.5" fill="#dff5e6" opacity="0.24"/><circle cx="193" cy="238" r="2.1" fill="#dff5e6" opacity="0.41"/><circle cx="1205" cy="239" r="1.7" fill="#dff5e6" opacity="0.58"/><circle cx="1180" cy="170" r="2.2" fill="#dff5e6" opacity="0.17"/><circle cx="1273" cy="182" r="2.6" fill="#dff5e6" opacity="0.24"/><circle cx="804" cy="166" r="1.5" fill="#dff5e6" opacity="0.43"/><circle cx="228" cy="217" r="2.4" fill="#dff5e6" opacity="0.65"/><circle cx="1136" cy="186" r="1.5" fill="#dff5e6" opacity="0.53"/><circle cx="1118" cy="203" r="1.5" fill="#dff5e6" opacity="0.29"/><circle cx="702" cy="200" r="1.7" fill="#dff5e6" opacity="0.41"/><circle cx="813" cy="189" r="1.8" fill="#dff5e6" opacity="0.65"/><circle cx="255" cy="183" r="1.5" fill="#dff5e6" opacity="0.58"/><circle cx="555" cy="168" r="2.5" fill="#dff5e6" opacity="0.50"/><circle cx="159" cy="214" r="1.7" fill="#dff5e6" opacity="0.40"/><circle cx="103" cy="222" r="2.2" fill="#dff5e6" opacity="0.66"/><circle cx="119" cy="174" r="1.6" fill="#dff5e6" opacity="0.29"/><circle cx="677" cy="177" r="2.3" fill="#dff5e6" opacity="0.64"/><circle cx="1301" cy="242" r="2.3" fill="#dff5e6" opacity="0.16"/><circle cx="230" cy="235" r="2.3" fill="#dff5e6" opacity="0.31"/><circle cx="922" cy="239" r="1.5" fill="#dff5e6" opacity="0.22"/><circle cx="1316" cy="199" r="1.3" fill="#dff5e6" opacity="0.64"/><circle cx="1406" cy="169" r="2.3" fill="#dff5e6" opacity="0.40"/><circle cx="294" cy="182" r="1.3" fill="#dff5e6" opacity="0.47"/><circle cx="824" cy="224" r="1.0" fill="#dff5e6" opacity="0.22"/><circle cx="2" cy="235" r="1.1" fill="#dff5e6" opacity="0.47"/><circle cx="1047" cy="214" r="1.8" fill="#dff5e6" opacity="0.44"/><circle cx="162" cy="197" r="2.4" fill="#dff5e6" opacity="0.41"/><circle cx="187" cy="173" r="2.1" fill="#dff5e6" opacity="0.34"/><circle cx="1570" cy="183" r="1.4" fill="#dff5e6" opacity="0.60"/><circle cx="649" cy="187" r="1.9" fill="#dff5e6" opacity="0.25"/><circle cx="974" cy="241" r="2.3" fill="#dff5e6" opacity="0.29"/><circle cx="573" cy="232" r="2.4" fill="#dff5e6" opacity="0.65"/><circle cx="94" cy="236" r="2.4" fill="#dff5e6" opacity="0.47"/><circle cx="1308" cy="199" r="1.5" fill="#dff5e6" opacity="0.21"/><circle cx="538" cy="228" r="2.5" fill="#dff5e6" opacity="0.52"/><circle cx="1248" cy="192" r="1.4" fill="#dff5e6" opacity="0.52"/><circle cx="1019" cy="169" r="2.5" fill="#dff5e6" opacity="0.35"/><circle cx="668" cy="218" r="1.7" fill="#dff5e6" opacity="0.17"/><circle cx="445" cy="222" r="1.6" fill="#dff5e6" opacity="0.32"/><circle cx="604" cy="239" r="1.4" fill="#dff5e6" opacity="0.40"/><circle cx="704" cy="219" r="1.6" fill="#dff5e6" opacity="0.44"/><circle cx="251" cy="231" r="2.2" fill="#dff5e6" opacity="0.59"/><circle cx="881" cy="235" r="2.0" fill="#dff5e6" opacity="0.54"/><circle cx="460" cy="195" r="1.4" fill="#dff5e6" opacity="0.66"/><circle cx="1360" cy="217" r="2.6" fill="#dff5e6" opacity="0.46"/><circle cx="1356" cy="227" r="2.6" fill="#dff5e6" opacity="0.17"/><circle cx="725" cy="188" r="1.9" fill="#dff5e6" opacity="0.46"/><circle cx="1158" cy="189" r="1.7" fill="#dff5e6" opacity="0.69"/><circle cx="1408" cy="204" r="2.3" fill="#dff5e6" opacity="0.45"/><circle cx="1015" cy="220" r="1.2" fill="#dff5e6" opacity="0.50"/><circle cx="498" cy="199" r="2.2" fill="#dff5e6" opacity="0.50"/><circle cx="474" cy="240" r="1.6" fill="#dff5e6" opacity="0.19"/><circle cx="1403" cy="187" r="1.2" fill="#dff5e6" opacity="0.41"/><circle cx="278" cy="213" r="2.1" fill="#dff5e6" opacity="0.55"/><circle cx="1547" cy="233" r="1.7" fill="#dff5e6" opacity="0.43"/><circle cx="5" cy="217" r="2.5" fill="#dff5e6" opacity="0.34"/><circle cx="1053" cy="207" r="1.6" fill="#dff5e6" opacity="0.41"/><circle cx="868" cy="222" r="1.0" fill="#dff5e6" opacity="0.50"/><circle cx="1502" cy="191" r="1.9" fill="#dff5e6" opacity="0.33"/><circle cx="108" cy="228" r="2.5" fill="#dff5e6" opacity="0.57"/><circle cx="384" cy="202" r="1.7" fill="#dff5e6" opacity="0.43"/><circle cx="960" cy="181" r="2.1" fill="#dff5e6" opacity="0.58"/><circle cx="1081" cy="173" r="1.2" fill="#dff5e6" opacity="0.41"/><circle cx="1458" cy="180" r="1.5" fill="#dff5e6" opacity="0.49"/><circle cx="867" cy="226" r="1.5" fill="#dff5e6" opacity="0.42"/><circle cx="1534" cy="235" r="2.5" fill="#dff5e6" opacity="0.66"/><circle cx="338" cy="234" r="2.7" fill="#dff5e6" opacity="0.37"/><circle cx="1454" cy="201" r="1.8" fill="#dff5e6" opacity="0.34"/><circle cx="65" cy="177" r="2.3" fill="#dff5e6" opacity="0.46"/><circle cx="1236" cy="171" r="1.2" fill="#dff5e6" opacity="0.42"/><circle cx="1328" cy="213" r="1.7" fill="#dff5e6" opacity="0.41"/><circle cx="1427" cy="185" r="1.2" fill="#dff5e6" opacity="0.53"/><circle cx="1401" cy="219" r="1.4" fill="#dff5e6" opacity="0.66"/><circle cx="1251" cy="183" r="1.4" fill="#dff5e6" opacity="0.48"/><circle cx="1296" cy="173" r="1.2" fill="#dff5e6" opacity="0.23"/><circle cx="443" cy="168" r="1.8" fill="#dff5e6" opacity="0.25"/><circle cx="1242" cy="193" r="1.7" fill="#dff5e6" opacity="0.55"/><circle cx="61" cy="187" r="2.0" fill="#dff5e6" opacity="0.24"/><circle cx="1049" cy="209" r="1.2" fill="#dff5e6" opacity="0.33"/><circle cx="456" cy="218" r="1.5" fill="#dff5e6" opacity="0.70"/><circle cx="416" cy="214" r="1.9" fill="#dff5e6" opacity="0.68"/><circle cx="230" cy="185" r="2.5" fill="#dff5e6" opacity="0.21"/><circle cx="1053" cy="204" r="1.1" fill="#dff5e6" opacity="0.29"/><circle cx="730" cy="213" r="1.3" fill="#dff5e6" opacity="0.52"/><circle cx="1270" cy="176" r="1.9" fill="#dff5e6" opacity="0.47"/><circle cx="1043" cy="205" r="2.4" fill="#dff5e6" opacity="0.26"/><circle cx="69" cy="241" r="1.9" fill="#dff5e6" opacity="0.51"/><circle cx="372" cy="219" r="2.0" fill="#dff5e6" opacity="0.57"/><circle cx="325" cy="185" r="1.5" fill="#dff5e6" opacity="0.27"/><circle cx="341" cy="231" r="1.6" fill="#dff5e6" opacity="0.17"/><circle cx="160" cy="175" r="2.5" fill="#dff5e6" opacity="0.60"/><circle cx="549" cy="215" r="1.2" fill="#dff5e6" opacity="0.63"/><circle cx="1099" cy="223" r="2.3" fill="#dff5e6" opacity="0.38"/><circle cx="782" cy="178" r="2.2" fill="#dff5e6" opacity="0.31"/><circle cx="1065" cy="208" r="1.2" fill="#dff5e6" opacity="0.36"/><circle cx="326" cy="167" r="1.1" fill="#dff5e6" opacity="0.47"/><circle cx="820" cy="202" r="2.4" fill="#dff5e6" opacity="0.55"/><circle cx="61" cy="197" r="2.1" fill="#dff5e6" opacity="0.16"/><circle cx="245" cy="229" r="1.5" fill="#dff5e6" opacity="0.32"/><circle cx="1579" cy="174" r="1.1" fill="#dff5e6" opacity="0.68"/><circle cx="512" cy="187" r="1.7" fill="#dff5e6" opacity="0.66"/><circle cx="226" cy="170" r="1.2" fill="#dff5e6" opacity="0.21"/><circle cx="250" cy="200" r="1.7" fill="#dff5e6" opacity="0.24"/><circle cx="1273" cy="226" r="2.2" fill="#dff5e6" opacity="0.39"/><circle cx="521" cy="196" r="1.1" fill="#dff5e6" opacity="0.29"/><circle cx="867" cy="184" r="1.6" fill="#dff5e6" opacity="0.45"/><circle cx="344" cy="225" r="1.9" fill="#dff5e6" opacity="0.25"/><circle cx="1521" cy="211" r="1.4" fill="#dff5e6" opacity="0.15"/><circle cx="208" cy="198" r="2.3" fill="#dff5e6" opacity="0.37"/><circle cx="188" cy="171" r="2.5" fill="#dff5e6" opacity="0.60"/><circle cx="1353" cy="203" r="1.1" fill="#dff5e6" opacity="0.54"/><circle cx="1100" cy="176" r="1.2" fill="#dff5e6" opacity="0.30"/><circle cx="435" cy="188" r="2.5" fill="#dff5e6" opacity="0.23"/><circle cx="993" cy="240" r="1.2" fill="#dff5e6" opacity="0.44"/><circle cx="608" cy="188" r="2.2" fill="#dff5e6" opacity="0.55"/><circle cx="167" cy="169" r="1.5" fill="#dff5e6" opacity="0.27"/><circle cx="447" cy="181" r="1.8" fill="#dff5e6" opacity="0.67"/><circle cx="256" cy="184" r="2.0" fill="#dff5e6" opacity="0.18"/><circle cx="1402" cy="203" r="2.5" fill="#dff5e6" opacity="0.49"/><circle cx="448" cy="236" r="2.2" fill="#dff5e6" opacity="0.68"/><circle cx="1160" cy="198" r="2.2" fill="#dff5e6" opacity="0.38"/><circle cx="871" cy="196" r="1.4" fill="#dff5e6" opacity="0.33"/><circle cx="676" cy="181" r="2.4" fill="#dff5e6" opacity="0.49"/><circle cx="846" cy="234" r="2.3" fill="#dff5e6" opacity="0.44"/><circle cx="886" cy="230" r="1.7" fill="#dff5e6" opacity="0.29"/><circle cx="296" cy="212" r="2.0" fill="#dff5e6" opacity="0.16"/><circle cx="814" cy="179" r="2.1" fill="#dff5e6" opacity="0.67"/><circle cx="370" cy="236" r="1.0" fill="#dff5e6" opacity="0.31"/><circle cx="423" cy="205" r="1.8" fill="#dff5e6" opacity="0.57"/><circle cx="153" cy="240" r="1.7" fill="#dff5e6" opacity="0.18"/><circle cx="1419" cy="178" r="2.0" fill="#dff5e6" opacity="0.32"/><circle cx="428" cy="222" r="2.1" fill="#dff5e6" opacity="0.30"/><circle cx="1489" cy="218" r="1.2" fill="#dff5e6" opacity="0.65"/><circle cx="1127" cy="188" r="1.8" fill="#dff5e6" opacity="0.49"/><circle cx="1438" cy="204" r="1.6" fill="#dff5e6" opacity="0.44"/><circle cx="986" cy="200" r="1.5" fill="#dff5e6" opacity="0.68"/><circle cx="1517" cy="214" r="1.8" fill="#dff5e6" opacity="0.68"/><circle cx="1036" cy="215" r="1.4" fill="#dff5e6" opacity="0.57"/><circle cx="708" cy="236" r="2.3" fill="#dff5e6" opacity="0.17"/><circle cx="53" cy="206" r="2.2" fill="#dff5e6" opacity="0.46"/><circle cx="57" cy="227" r="1.3" fill="#dff5e6" opacity="0.20"/><circle cx="485" cy="178" r="2.2" fill="#dff5e6" opacity="0.33"/><circle cx="743" cy="190" r="1.3" fill="#dff5e6" opacity="0.31"/><circle cx="1249" cy="227" r="1.9" fill="#dff5e6" opacity="0.60"/><circle cx="822" cy="194" r="1.5" fill="#dff5e6" opacity="0.31"/><circle cx="1248" cy="224" r="2.7" fill="#dff5e6" opacity="0.53"/><circle cx="1231" cy="241" r="1.8" fill="#dff5e6" opacity="0.63"/><circle cx="1520" cy="231" r="1.3" fill="#dff5e6" opacity="0.48"/><circle cx="371" cy="194" r="1.2" fill="#dff5e6" opacity="0.36"/><circle cx="662" cy="176" r="2.0" fill="#dff5e6" opacity="0.20"/><circle cx="718" cy="220" r="1.3" fill="#dff5e6" opacity="0.34"/><circle cx="772" cy="230" r="1.5" fill="#dff5e6" opacity="0.40"/><circle cx="448" cy="228" r="1.9" fill="#dff5e6" opacity="0.28"/><circle cx="769" cy="167" r="1.7" fill="#dff5e6" opacity="0.51"/><circle cx="1293" cy="188" r="2.7" fill="#dff5e6" opacity="0.31"/><circle cx="148" cy="169" r="1.4" fill="#dff5e6" opacity="0.46"/><circle cx="1572" cy="172" r="1.9" fill="#dff5e6" opacity="0.56"/><circle cx="1490" cy="229" r="1.9" fill="#dff5e6" opacity="0.21"/><circle cx="697" cy="242" r="1.0" fill="#dff5e6" opacity="0.64"/><circle cx="1319" cy="214" r="1.8" fill="#dff5e6" opacity="0.18"/><circle cx="1321" cy="202" r="1.9" fill="#dff5e6" opacity="0.63"/><circle cx="1544" cy="178" r="1.8" fill="#dff5e6" opacity="0.30"/><circle cx="777" cy="226" r="1.7" fill="#dff5e6" opacity="0.21"/><circle cx="764" cy="224" r="1.8" fill="#dff5e6" opacity="0.56"/><circle cx="1362" cy="183" r="1.6" fill="#dff5e6" opacity="0.37"/><circle cx="454" cy="229" r="1.2" fill="#dff5e6" opacity="0.59"/><circle cx="884" cy="199" r="1.3" fill="#dff5e6" opacity="0.16"/><circle cx="968" cy="226" r="2.0" fill="#dff5e6" opacity="0.66"/><circle cx="314" cy="201" r="1.7" fill="#dff5e6" opacity="0.53"/><circle cx="908" cy="205" r="2.3" fill="#dff5e6" opacity="0.45"/><circle cx="741" cy="212" r="1.5" fill="#dff5e6" opacity="0.50"/><circle cx="1380" cy="168" r="1.8" fill="#dff5e6" opacity="0.33"/><circle cx="1404" cy="235" r="1.8" fill="#dff5e6" opacity="0.52"/><circle cx="673" cy="173" r="1.1" fill="#dff5e6" opacity="0.30"/><circle cx="723" cy="204" r="2.0" fill="#dff5e6" opacity="0.16"/><circle cx="214" cy="201" r="2.5" fill="#dff5e6" opacity="0.69"/><circle cx="1343" cy="230" r="1.9" fill="#dff5e6" opacity="0.21"/><circle cx="746" cy="174" r="2.6" fill="#dff5e6" opacity="0.70"/><circle cx="1034" cy="204" r="2.2" fill="#dff5e6" opacity="0.45"/><circle cx="191" cy="173" r="1.8" fill="#dff5e6" opacity="0.30"/><circle cx="1036" cy="187" r="2.4" fill="#dff5e6" opacity="0.68"/><circle cx="418" cy="233" r="1.5" fill="#dff5e6" opacity="0.58"/><circle cx="697" cy="227" r="1.7" fill="#dff5e6" opacity="0.34"/><circle cx="202" cy="211" r="2.6" fill="#dff5e6" opacity="0.57"/><circle cx="349" cy="203" r="2.0" fill="#dff5e6" opacity="0.68"/><circle cx="1128" cy="202" r="2.1" fill="#dff5e6" opacity="0.47"/><circle cx="194" cy="220" r="2.1" fill="#dff5e6" opacity="0.32"/><circle cx="59" cy="206" r="2.3" fill="#dff5e6" opacity="0.28"/><circle cx="227" cy="183" r="2.3" fill="#dff5e6" opacity="0.46"/><circle cx="457" cy="219" r="1.1" fill="#dff5e6" opacity="0.69"/><circle cx="1248" cy="176" r="1.6" fill="#dff5e6" opacity="0.56"/><circle cx="1489" cy="199" r="1.4" fill="#dff5e6" opacity="0.41"/><circle cx="1583" cy="189" r="1.0" fill="#dff5e6" opacity="0.66"/><circle cx="425" cy="239" r="2.1" fill="#dff5e6" opacity="0.29"/><circle cx="1599" cy="216" r="1.7" fill="#dff5e6" opacity="0.31"/><circle cx="442" cy="235" r="2.6" fill="#dff5e6" opacity="0.46"/><circle cx="280" cy="208" r="2.2" fill="#dff5e6" opacity="0.54"/><circle cx="1018" cy="199" r="2.0" fill="#dff5e6" opacity="0.66"/><circle cx="40" cy="242" r="2.5" fill="#dff5e6" opacity="0.24"/><circle cx="471" cy="241" r="1.3" fill="#dff5e6" opacity="0.39"/><circle cx="481" cy="239" r="2.6" fill="#dff5e6" opacity="0.17"/><circle cx="1008" cy="200" r="2.0" fill="#dff5e6" opacity="0.69"/><circle cx="358" cy="186" r="1.7" fill="#dff5e6" opacity="0.70"/><circle cx="989" cy="179" r="1.5" fill="#dff5e6" opacity="0.52"/><circle cx="47" cy="187" r="1.6" fill="#dff5e6" opacity="0.50"/><circle cx="303" cy="234" r="1.1" fill="#dff5e6" opacity="0.59"/><circle cx="708" cy="182" r="1.9" fill="#dff5e6" opacity="0.61"/><circle cx="1333" cy="195" r="2.5" fill="#dff5e6" opacity="0.51"/><circle cx="166" cy="238" r="2.5" fill="#dff5e6" opacity="0.57"/><circle cx="581" cy="175" r="1.5" fill="#dff5e6" opacity="0.23"/><circle cx="130" cy="220" r="2.7" fill="#dff5e6" opacity="0.49"/><circle cx="322" cy="202" r="1.6" fill="#dff5e6" opacity="0.67"/><circle cx="894" cy="234" r="2.7" fill="#dff5e6" opacity="0.45"/><circle cx="1047" cy="219" r="1.5" fill="#dff5e6" opacity="0.63"/><circle cx="1422" cy="236" r="1.6" fill="#dff5e6" opacity="0.17"/><circle cx="659" cy="218" r="2.2" fill="#dff5e6" opacity="0.29"/><circle cx="199" cy="216" r="1.8" fill="#dff5e6" opacity="0.62"/><circle cx="1293" cy="228" r="2.1" fill="#dff5e6" opacity="0.44"/><circle cx="933" cy="199" r="1.4" fill="#dff5e6" opacity="0.55"/><circle cx="133" cy="241" r="2.3" fill="#dff5e6" opacity="0.65"/><circle cx="409" cy="166" r="1.6" fill="#dff5e6" opacity="0.64"/><circle cx="144" cy="206" r="1.5" fill="#dff5e6" opacity="0.65"/><circle cx="901" cy="228" r="2.2" fill="#dff5e6" opacity="0.67"/><circle cx="1385" cy="217" r="1.8" fill="#dff5e6" opacity="0.46"/><circle cx="761" cy="177" r="2.3" fill="#dff5e6" opacity="0.32"/><circle cx="1043" cy="173" r="2.5" fill="#dff5e6" opacity="0.39"/><circle cx="53" cy="174" r="2.7" fill="#dff5e6" opacity="0.19"/><circle cx="1416" cy="196" r="2.6" fill="#dff5e6" opacity="0.24"/><circle cx="608" cy="241" r="2.3" fill="#dff5e6" opacity="0.30"/><circle cx="984" cy="235" r="2.7" fill="#dff5e6" opacity="0.62"/><circle cx="479" cy="207" r="1.7" fill="#dff5e6" opacity="0.47"/><circle cx="1497" cy="216" r="1.1" fill="#dff5e6" opacity="0.62"/><circle cx="233" cy="211" r="1.3" fill="#dff5e6" opacity="0.68"/><circle cx="1424" cy="234" r="2.2" fill="#dff5e6" opacity="0.57"/><polygon points="350,250 414,250 -914,700 -1200,700" fill="#134a2b"/><polygon points="414,250 479,250 -629,700 -914,700" fill="#0f3a22"/><polygon points="479,250 543,250 -343,700 -629,700" fill="#134a2b"/><polygon points="543,250 607,250 -57,700 -343,700" fill="#0f3a22"/><polygon points="607,250 671,250 229,700 -57,700" fill="#134a2b"/><polygon points="671,250 736,250 514,700 229,700" fill="#0f3a22"/><polygon points="736,250 800,250 800,700 514,700" fill="#134a2b"/><polygon points="800,250 864,250 1086,700 800,700" fill="#0f3a22"/><polygon points="864,250 929,250 1371,700 1086,700" fill="#134a2b"/><polygon points="929,250 993,250 1657,700 1371,700" fill="#0f3a22"/><polygon points="993,250 1057,250 1943,700 1657,700" fill="#134a2b"/><polygon points="1057,250 1121,250 2229,700 1943,700" fill="#0f3a22"/><polygon points="1121,250 1186,250 2514,700 2229,700" fill="#134a2b"/><polygon points="1186,250 1250,250 2800,700 2514,700" fill="#0f3a22"/><g fill="none" stroke="#fff" stroke-opacity=".38" stroke-width="3"><ellipse cx="800" cy="480" rx="310" ry="62"/><line x1="800" y1="250" x2="800" y2="700"/></g><polygon points="125,60 155,60 1200,700 350,700" fill="url(#bm)"/><polygon points="1445,60 1475,60 1250,700 400,700" fill="url(#bm)"/><rect width="1600" height="700" fill="url(#vg)"/></svg>